<svg
  xmlns="http://www.w3.org/2000/svg"
  viewBox="0 0 25 25"
  fill="#fff"
>
  <path d="M22.23 0H1.77C.79 0 0 .77 0 1.73v20.54C0 23.22.79 24 1.77 24h20.46C23.21 24 24 23.22 24 22.27V1.73C24 .77 23.21 0 22.23 0zM7.12 20.44H3.56V9h3.56v11.44zM5.34 7.65a2.06 2.06 0 01-2.06-2.06c0-1.13.93-2.06 2.06-2.06s2.06.93 2.06 2.06a2.06 2.06 0 01-2.06 2.06zm15.09 12.79h-3.56v-5.59c0-1.33-.03-3.05-1.86-3.05-1.86 0-2.15 1.45-2.15 2.95v5.69h-3.56V9h3.42v1.56h.05c.48-.9 1.64-1.85 3.38-1.85 3.62 0 4.29 2.38 4.29 5.47v6.26z" />
</svg>
